<?xml version="1.0" standalone="no"?>
<!DOCTYPE svg PUBLIC "-//W3C//DTD SVG 20010904//EN"
 "http://www.w3.org/TR/2001/REC-SVG-20010904/DTD/svg10.dtd">
<svg version="1.0" xmlns="http://www.w3.org/2000/svg"
 width="4560.000000pt" height="4560.000000pt" viewBox="0 0 4560.000000 4560.000000"
 preserveAspectRatio="xMidYMid meet">
<metadata>
Created by potrace 1.11, written by Peter Selinger 2001-2013
</metadata>
<g transform="translate(0.000000,4560.000000) scale(0.100000,-0.100000)"
fill="#000000" stroke="none">
<path d="M10871 38353 c-264 -797 -2814 -8447 -5665 -17000 l-5184 -15553
7112 0 7112 0 1664 5000 1665 5000 4985 0 4986 0 1664 5000 1665 5000 4985 0
4985 0 469 1408 c259 774 1308 3924 2332 7000 l1862 5592 -17079 0 -17078 0
-480 -1447z m5784 -12553 c-2355 -7066 -3329 -10000 -3319 -10000 8 0 14 -3
14 -7 0 -5 -449 -1355 -997 -3000 l-998 -2993 -2889 0 c-2306 0 -2887 3 -2884
13 3 6 1952 5856 4332 13000 l4328 12987 2873 0 2873 0 -3333 -10000z m13295
9992 c0 -4 -749 -2254 -1664 -5000 -1177 -3531 -1660 -4992 -1650 -4992 8 0
14 -3 14 -7 0 -5 -449 -1355 -997 -3000 l-998 -2993 -2889 0 c-2450 0 -2887 2
-2883 14 3 7 1201 3604 2662 7992 1462 4389 2659 7982 2662 7987 6 9 5743 9
5743 -1z m10000 1 c0 -5 -449 -1355 -997 -3000 l-998 -2993 -2887 0 c-1589 0
-2888 1 -2888 3 0 2 1987 5964 1995 5985 3 9 591 12 2890 12 1587 0 2885 -3
2885 -7z"/>
</g>
</svg>
